<svg width="24" height="24" viewBox="0 0 24 24" fill="none" xmlns="http://www.w3.org/2000/svg">
<path d="M16.7694 18.9785H7.22941C6.8173 18.9785 6.43058 18.708 6.28898 18.3213L2.12882 6.6709C2.01554 6.35303 2.05753 6.03076 2.24601 5.76367C2.43449 5.49561 2.75089 5.3291 3.07121 5.3291C3.27531 5.3291 3.4755 5.39551 3.64933 5.52148L7.65128 8.37988C7.82023 8.50146 8.01945 8.56592 8.22843 8.56592C8.64738 8.56592 9.02628 8.30713 9.17082 7.92139L11.0585 2.87842C11.2069 2.47607 11.5653 2.22607 11.9941 2.22607C12.4228 2.22607 12.7812 2.47607 12.9296 2.87842L14.8212 7.92139C14.9667 8.31396 15.3329 8.56738 15.7538 8.56738C15.9628 8.56738 16.1659 8.50244 16.3417 8.37988L20.3398 5.52148C20.5155 5.39648 20.7167 5.33057 20.9198 5.33057C21.2402 5.33057 21.5566 5.49707 21.745 5.76514C21.9325 6.03271 21.9736 6.35449 21.8593 6.6709L17.7001 18.3213C17.5722 18.708 17.1894 18.9785 16.7694 18.9785ZM9.50187 13.251C9.08683 13.251 8.74992 13.5869 8.74992 13.9995C8.74992 14.4141 9.08683 14.7515 9.50187 14.7515H14.5009C14.9062 14.7515 15.2489 14.4072 15.2489 13.9995C15.2489 13.5869 14.913 13.251 14.5009 13.251H9.50187Z" fill="url(#paint0_linear_2_2098)"/>
<path d="M17 22H7C6.59 22 6.25 21.66 6.25 21.25C6.25 20.84 6.59 20.5 7 20.5H17C17.41 20.5 17.75 20.84 17.75 21.25C17.75 21.66 17.41 22 17 22Z" fill="url(#paint1_linear_2_2098)"/>
<defs>
<linearGradient id="paint0_linear_2_2098" x1="7.0305" y1="6.41418" x2="7.0305" y2="6.41418" gradientUnits="userSpaceOnUse">
<stop stop-color="#FFE600"/>
<stop offset="1" stop-color="#FF9900"/>
</linearGradient>
<linearGradient id="paint1_linear_2_2098" x1="9.125" y1="20.875" x2="9.125" y2="20.875" gradientUnits="userSpaceOnUse">
<stop stop-color="#FFE600"/>
<stop offset="1" stop-color="#FF9900"/>
</linearGradient>
</defs>
</svg>
