<svg width="24" height="24" viewBox="0 0 24 24" fill="none" xmlns="http://www.w3.org/2000/svg">
<path d="M9.02 2.84016L3.63 7.04016C2.73 7.74016 2 9.23016 2 10.3602V17.7702C2 20.0902 3.89 21.9902 6.21 21.9902H17.79C20.11 21.9902 22 20.0902 22 17.7802V10.5002C22 9.29016 21.19 7.74016 20.2 7.05016L14.02 2.72016C12.62 1.74016 10.37 1.79016 9.02 2.84016Z" stroke="#5D638D" stroke-width="2" stroke-linecap="round" stroke-linejoin="round"/>
<path d="M9.53263 13.5344H10.824V16.5401C10.824 16.9854 11.3732 17.1932 11.6701 16.8593L14.8317 13.2672C15.1062 12.9555 14.8836 12.4657 14.468 12.4657H13.1766V9.45993C13.1766 9.01463 12.6274 8.80683 12.3306 9.1408L9.16897 12.7328C8.89438 13.0446 9.11702 13.5344 9.53263 13.5344Z" fill="#5D638D"/>
</svg>
