<svg width="24" height="26" viewBox="0 0 24 26" fill="none" xmlns="http://www.w3.org/2000/svg">
<path d="M12.1888 25.0941C12.094 25.0941 11.9994 25.0819 11.9076 25.0577C1.56131 22.2794 0.945495 9.82494 1.0032 6.07397C1.01313 5.50808 1.44454 5.04262 2.0067 4.99127C6.61988 4.55945 10.3561 2.15675 11.7483 1.14377C11.8772 1.04972 12.0296 1 12.1888 1C12.3481 1 12.5004 1.04972 12.6294 1.14377C14.0238 2.1569 17.7647 4.55992 22.3728 4.99127C22.9382 5.04283 23.37 5.50829 23.3772 6.07397C23.4322 9.82589 22.8081 22.2832 12.4701 25.0577C12.3783 25.0819 12.2837 25.0941 12.1888 25.0941ZM12.1893 2.56599C12.0506 2.56599 11.9181 2.60917 11.8059 2.69087C10.5951 3.57229 7.34544 5.66298 3.3315 6.03887C2.84142 6.08392 2.46572 6.48863 2.4576 6.98027C2.40722 10.2435 2.94247 21.0786 11.9445 23.4953C12.0242 23.5168 12.1063 23.5277 12.1884 23.5277C12.2711 23.5277 12.3535 23.5168 12.4332 23.4953C21.4269 21.0826 21.9704 10.2445 21.9228 6.98027C21.9165 6.4888 21.5408 6.08408 21.0489 6.03887C17.04 5.66345 13.7857 3.57245 12.5727 2.69087C12.4605 2.60917 12.3279 2.56599 12.1893 2.56599Z" fill="white" stroke="black"/>
<path d="M15.1117 14.3964C14.3304 15.5021 10.9862 18.9326 10.8445 19.0783C10.6802 19.279 10.2286 19.617 9.7982 19.34C9.67419 19.2605 9.52778 19.0994 9.52778 18.783C9.52778 18.4796 9.66631 18.1705 9.6824 18.136L11.3125 14.5447C11.0058 14.4225 10.4804 14.2111 10.0724 14.0349L9.9645 13.989C9.55145 13.8143 9.03711 13.5976 9.03711 13.0335C9.03711 12.7639 9.16585 12.4505 9.43028 12.0767C10.2113 10.971 13.5557 7.54018 13.698 7.39474C13.8618 7.1937 14.313 6.85603 14.7437 7.13308C14.8677 7.21318 15.0142 7.37432 15.0142 7.6897C15.0142 7.99345 14.8756 8.30254 14.8595 8.33709L13.2291 11.9278C13.5358 12.0503 14.0615 12.262 14.4695 12.4379L14.5774 12.4837C14.9905 12.6581 15.5048 12.8755 15.5048 13.4399C15.5048 13.7094 15.3761 14.0223 15.1117 14.3964Z" fill="white"/>
</svg>
