<svg width="24" height="24" viewBox="0 0 24 24" fill="none" xmlns="http://www.w3.org/2000/svg">
<path d="M24.0003 13.01C24.0075 16.1882 22.7446 19.2376 20.4923 21.48C19.3748 22.6043 17.5806 22.6801 16.3723 21.654L15.3463 20.767C14.9282 20.4058 14.8821 19.7741 15.2433 19.356C15.6045 18.9379 16.2362 18.8918 16.6543 19.253L17.6813 20.141C18.0921 20.4914 18.7054 20.4584 19.0763 20.066C21.0032 18.1153 22.0489 15.4618 21.9707 12.721C21.8925 9.98025 20.6973 7.39059 18.6623 5.55297C16.5359 3.63424 13.6826 2.73046 10.8393 3.07497C7.02263 3.51726 3.79763 6.10881 2.54417 9.74081C1.2907 13.3728 2.23083 17.4018 4.9623 20.104C5.33543 20.4688 5.92633 20.4853 6.3193 20.142L7.3463 19.253C7.76438 18.8918 8.3961 18.9379 8.7573 19.356C9.11849 19.7741 9.07238 20.4058 8.6543 20.767L7.6283 21.655C6.44249 22.6744 4.67422 22.6184 3.5553 21.526C-0.309161 17.698 -1.11542 11.7493 1.59065 7.03074C4.29673 2.31216 9.83824 0.00393605 15.0939 1.40621C20.3495 2.80849 24.0045 7.5705 24.0003 13.01ZM17.7073 8.71697C18.0979 8.32655 18.0979 7.69339 17.7074 7.30287C17.3169 6.91234 16.6837 6.91234 16.2932 7.30287L12.5183 11.078C11.6439 10.8436 10.7211 11.2258 10.2685 12.0097C9.81583 12.7936 9.94617 13.7839 10.5863 14.424C11.2264 15.0641 12.2166 15.1944 13.0006 14.7418C13.7845 14.2891 14.1667 13.3664 13.9323 12.492L17.7073 8.71697Z" fill="#FF6A88"/>
</svg>
