<svg width="15" height="20" viewBox="0 0 15 20" fill="none" xmlns="http://www.w3.org/2000/svg">
<path d="M0.835503 11.2225H6.25217L5.65634 19.0725C5.63934 19.4345 5.85824 19.7659 6.19783 19.8925C6.53742 20.019 6.91984 19.9115 7.14384 19.6266L14.0105 10.0433C14.1934 9.7897 14.219 9.45503 14.0767 9.17658C13.9344 8.89814 13.6482 8.72279 13.3355 8.72247H7.91884L8.51467 0.872469C8.53167 0.510477 8.31277 0.178997 7.97318 0.0524832C7.63359 -0.0740309 7.25116 0.0334267 7.02717 0.318303L0.160503 9.89747C-0.0248565 10.1511 -0.0518044 10.4875 0.0908042 10.7674C0.233413 11.0473 0.521337 11.2233 0.835503 11.2225Z" fill="#FF9100"/>
</svg>
