<svg width="15" height="21" viewBox="0 0 15 21" fill="none" xmlns="http://www.w3.org/2000/svg">
<path d="M7.50005 20.3693C7.2877 20.3693 7.0772 20.3146 6.89131 20.2113L3.85831 18.5445C1.47752 17.2224 -0.000894446 14.7094 5.55368e-06 11.9862V5.27762C-0.00180445 4.48236 0.438926 3.76712 1.15021 3.41102L6.94171 0.519305C7.11437 0.433205 7.30748 0.387695 7.50016 0.387695C7.69284 0.387695 7.88595 0.433205 8.05861 0.519305L13.8501 3.41102C14.5605 3.76666 15.0012 4.48189 15.0003 5.27762V11.9862C15.0003 14.7094 13.5219 17.2224 11.142 18.5445L8.10811 20.2113C7.92266 20.3146 7.7124 20.3693 7.50005 20.3693ZM5.21442 9.35039C5.14166 9.35039 5.06905 9.35999 4.99861 9.37891C4.71228 9.45496 4.4864 9.68083 4.40911 9.9684C4.33209 10.255 4.41486 10.5636 4.62511 10.7739L6.32071 12.4695C6.47856 12.6274 6.68792 12.7143 6.91021 12.7143C7.13017 12.7143 7.34504 12.6251 7.49971 12.4695L10.4166 9.50311C10.6345 9.17494 10.591 8.73429 10.3131 8.45551C10.1558 8.29671 9.94588 8.20925 9.72197 8.20925C9.55993 8.20925 9.4024 8.25612 9.26641 8.34482L6.91291 10.7028L5.80411 9.5949C5.64641 9.43723 5.43699 9.35039 5.21442 9.35039Z" fill="#825FFE"/>
</svg>
