<svg width="267" height="224" viewBox="0 0 267 224" fill="none" xmlns="http://www.w3.org/2000/svg">
<path d="M231.895 223.725L231.894 223.724L215.712 207.543C234.076 187.172 244.189 160.877 244.189 133.5C244.189 72.4644 194.534 22.8076 133.499 22.8076C72.4639 22.8076 22.8086 72.4644 22.8086 133.5C22.8086 160.617 32.7549 186.725 50.8145 207.016L34.6279 223.202C30.3379 218.474 26.3584 213.407 22.7988 208.141C17.9756 201 13.835 193.37 10.4922 185.465C7.08691 177.417 4.46973 168.986 2.71191 160.406C0.912109 151.611 -0.000976562 142.559 -0.000976562 133.5C-0.000976562 124.442 0.912109 115.39 2.71191 106.595C4.46875 98.0171 7.08594 89.5864 10.4922 81.5361C13.833 73.6338 17.9736 66.0034 22.7988 58.8579C27.5752 51.79 33.0596 45.1426 39.1016 39.1006C45.1475 33.0547 51.7949 27.5703 58.8594 22.7998C65.998 17.9766 73.6279 13.835 81.5352 10.4907C89.6025 7.07959 98.0332 4.46289 106.594 2.71338C115.384 0.913086 124.437 0.000488281 133.499 0.000488281C142.562 0.000488281 151.614 0.913086 160.404 2.71338C168.962 4.46143 177.394 7.07812 185.464 10.4907C193.367 13.8325 200.997 17.9736 208.142 22.7998C215.206 27.5703 221.854 33.0547 227.899 39.1006C233.943 45.1455 239.429 51.793 244.2 58.8579C249.025 66.0024 253.167 73.6323 256.509 81.5361C259.919 89.5991 262.536 98.0303 264.289 106.595C266.087 115.387 266.999 124.439 266.999 133.5C266.999 142.559 266.087 151.611 264.289 160.406C262.535 168.973 259.918 177.404 256.509 185.465C253.165 193.372 249.023 201.001 244.2 208.141C240.515 213.598 236.374 218.841 231.896 223.724L231.895 223.725Z" fill="url(#paint0_linear_78_583)"/>
<path d="M221.473 154L225.376 146.278V146.21H220.876V145.273H226.467V146.261L222.581 154H221.473ZM230.666 154.119C230.166 154.119 229.716 154.02 229.315 153.821C228.914 153.622 228.593 153.349 228.352 153.003C228.11 152.656 227.978 152.261 227.956 151.818H228.978C229.018 152.213 229.197 152.54 229.515 152.798C229.836 153.054 230.22 153.182 230.666 153.182C231.024 153.182 231.342 153.098 231.62 152.93C231.902 152.763 232.122 152.533 232.281 152.24C232.443 151.945 232.524 151.611 232.524 151.239C232.524 150.858 232.44 150.518 232.272 150.22C232.108 149.919 231.88 149.682 231.591 149.509C231.301 149.335 230.97 149.247 230.598 149.244C230.331 149.241 230.056 149.283 229.775 149.368C229.494 149.45 229.262 149.557 229.081 149.688L228.092 149.568L228.62 145.273H233.154V146.21H229.507L229.2 148.784H229.251C229.43 148.642 229.654 148.524 229.924 148.43C230.194 148.337 230.475 148.29 230.768 148.29C231.302 148.29 231.778 148.418 232.196 148.673C232.616 148.926 232.946 149.273 233.184 149.713C233.426 150.153 233.547 150.656 233.547 151.222C233.547 151.778 233.422 152.276 233.172 152.713C232.924 153.148 232.583 153.491 232.149 153.744C231.714 153.994 231.22 154.119 230.666 154.119Z" fill="white"/>
<path d="M195.434 191.273V200H194.377V192.381H194.326L192.195 193.795V192.722L194.377 191.273H195.434ZM200.79 200.119C200.148 200.119 199.601 199.945 199.149 199.595C198.698 199.243 198.353 198.733 198.114 198.065C197.875 197.395 197.756 196.585 197.756 195.636C197.756 194.693 197.875 193.888 198.114 193.22C198.355 192.55 198.702 192.038 199.154 191.686C199.608 191.331 200.154 191.153 200.79 191.153C201.426 191.153 201.97 191.331 202.422 191.686C202.877 192.038 203.223 192.55 203.462 193.22C203.703 193.888 203.824 194.693 203.824 195.636C203.824 196.585 203.705 197.395 203.466 198.065C203.228 198.733 202.882 199.243 202.431 199.595C201.979 199.945 201.432 200.119 200.79 200.119ZM200.79 199.182C201.426 199.182 201.921 198.875 202.273 198.261C202.625 197.648 202.801 196.773 202.801 195.636C202.801 194.881 202.72 194.237 202.559 193.706C202.399 193.175 202.169 192.77 201.868 192.491C201.57 192.213 201.21 192.074 200.79 192.074C200.159 192.074 199.666 192.385 199.311 193.007C198.956 193.626 198.779 194.503 198.779 195.636C198.779 196.392 198.858 197.034 199.017 197.562C199.176 198.091 199.405 198.493 199.703 198.768C200.005 199.044 200.367 199.182 200.79 199.182ZM208.29 200.119C207.648 200.119 207.101 199.945 206.649 199.595C206.198 199.243 205.853 198.733 205.614 198.065C205.375 197.395 205.256 196.585 205.256 195.636C205.256 194.693 205.375 193.888 205.614 193.22C205.855 192.55 206.202 192.038 206.654 191.686C207.108 191.331 207.654 191.153 208.29 191.153C208.926 191.153 209.47 191.331 209.922 191.686C210.377 192.038 210.723 192.55 210.962 193.22C211.203 193.888 211.324 194.693 211.324 195.636C211.324 196.585 211.205 197.395 210.966 198.065C210.728 198.733 210.382 199.243 209.931 199.595C209.479 199.945 208.932 200.119 208.29 200.119ZM208.29 199.182C208.926 199.182 209.421 198.875 209.773 198.261C210.125 197.648 210.301 196.773 210.301 195.636C210.301 194.881 210.22 194.237 210.059 193.706C209.899 193.175 209.669 192.77 209.368 192.491C209.07 192.213 208.71 192.074 208.29 192.074C207.659 192.074 207.166 192.385 206.811 193.007C206.456 193.626 206.279 194.503 206.279 195.636C206.279 196.392 206.358 197.034 206.517 197.562C206.676 198.091 206.905 198.493 207.203 198.768C207.505 199.044 207.867 199.182 208.29 199.182Z" fill="white"/>
<path d="M58.0654 200.119C57.4234 200.119 56.8765 199.945 56.4248 199.595C55.9731 199.243 55.6279 198.733 55.3893 198.065C55.1507 197.395 55.0313 196.585 55.0313 195.636C55.0313 194.693 55.1507 193.888 55.3893 193.22C55.6308 192.55 55.9774 192.038 56.4291 191.686C56.8836 191.331 57.4291 191.153 58.0654 191.153C58.7018 191.153 59.2458 191.331 59.6975 191.686C60.1521 192.038 60.4987 192.55 60.7373 193.22C60.9788 193.888 61.0995 194.693 61.0995 195.636C61.0995 196.585 60.9802 197.395 60.7416 198.065C60.5029 198.733 60.1578 199.243 59.7061 199.595C59.2544 199.945 58.7075 200.119 58.0654 200.119ZM58.0654 199.182C58.7018 199.182 59.1961 198.875 59.5484 198.261C59.9007 197.648 60.0768 196.773 60.0768 195.636C60.0768 194.881 59.9958 194.237 59.8339 193.706C59.6748 193.175 59.4447 192.77 59.1436 192.491C58.8453 192.213 58.4859 192.074 58.0654 192.074C57.4347 192.074 56.9419 192.385 56.5867 193.007C56.2316 193.626 56.0541 194.503 56.0541 195.636C56.0541 196.392 56.1336 197.034 56.2927 197.562C56.4518 198.091 56.6805 198.493 56.9788 198.768C57.2799 199.044 57.6421 199.182 58.0654 199.182Z" fill="white"/>
<path d="M43.2303 98.1193C42.7303 98.1193 42.28 98.0199 41.8794 97.821C41.4789 97.6222 41.1578 97.3494 40.9164 97.0028C40.6749 96.6562 40.5428 96.2614 40.5201 95.8182H41.5428C41.5826 96.2131 41.7615 96.5398 42.0797 96.7983C42.4007 97.054 42.7843 97.1818 43.2303 97.1818C43.5882 97.1818 43.9064 97.098 44.1848 96.9304C44.4661 96.7628 44.6863 96.5327 44.8453 96.2401C45.0073 95.9446 45.0882 95.6108 45.0882 95.2386C45.0882 94.858 45.0044 94.5185 44.8368 94.2202C44.6721 93.919 44.4448 93.6818 44.155 93.5085C43.8652 93.3352 43.5343 93.2472 43.1621 93.2443C42.8951 93.2415 42.6209 93.2827 42.3397 93.3679C42.0584 93.4503 41.8269 93.5568 41.6451 93.6875L40.6564 93.5682L41.1848 89.2727H45.7189V90.2102H42.0712L41.7644 92.7841H41.8155C41.9945 92.642 42.2189 92.5241 42.4888 92.4304C42.7587 92.3366 43.04 92.2898 43.3326 92.2898C43.8667 92.2898 44.3425 92.4176 44.7601 92.6733C45.1806 92.9261 45.5101 93.2727 45.7488 93.7131C45.9902 94.1534 46.111 94.6562 46.111 95.2216C46.111 95.7784 45.986 96.2756 45.736 96.7131C45.4888 97.1477 45.1479 97.4915 44.7132 97.7443C44.2786 97.9943 43.7843 98.1193 43.2303 98.1193Z" fill="white"/>
<path d="M36.3026 145.273V154H35.2458V146.381H35.1947L33.064 147.795V146.722L35.2458 145.273H36.3026Z" fill="white"/>
<path d="M215.046 98.1193C214.546 98.1193 214.095 98.0199 213.695 97.821C213.294 97.6222 212.973 97.3494 212.732 97.0028C212.49 96.6562 212.358 96.2614 212.335 95.8182H213.358C213.398 96.2131 213.577 96.5398 213.895 96.7983C214.216 97.054 214.6 97.1818 215.046 97.1818C215.404 97.1818 215.722 97.098 216 96.9304C216.282 96.7628 216.502 96.5327 216.661 96.2401C216.823 95.9446 216.904 95.6108 216.904 95.2386C216.904 94.858 216.82 94.5185 216.652 94.2202C216.487 93.919 216.26 93.6818 215.97 93.5085C215.681 93.3352 215.35 93.2472 214.978 93.2443C214.71 93.2415 214.436 93.2827 214.155 93.3679C213.874 93.4503 213.642 93.5568 213.46 93.6875L212.472 93.5682L213 89.2727H217.534V90.2102H213.887L213.58 92.7841H213.631C213.81 92.642 214.034 92.5241 214.304 92.4304C214.574 92.3366 214.855 92.2898 215.148 92.2898C215.682 92.2898 216.158 92.4176 216.576 92.6733C216.996 92.9261 217.326 93.2727 217.564 93.7131C217.806 94.1534 217.926 94.6562 217.926 95.2216C217.926 95.7784 217.801 96.2756 217.551 96.7131C217.304 97.1477 216.963 97.4915 216.529 97.7443C216.094 97.9943 215.6 98.1193 215.046 98.1193ZM222.466 98.1193C221.824 98.1193 221.277 97.9446 220.825 97.5952C220.373 97.2429 220.028 96.733 219.79 96.0653C219.551 95.3949 219.432 94.5852 219.432 93.6364C219.432 92.6932 219.551 91.8878 219.79 91.2202C220.031 90.5497 220.378 90.0384 220.829 89.6861C221.284 89.331 221.829 89.1534 222.466 89.1534C223.102 89.1534 223.646 89.331 224.098 89.6861C224.552 90.0384 224.899 90.5497 225.138 91.2202C225.379 91.8878 225.5 92.6932 225.5 93.6364C225.5 94.5852 225.381 95.3949 225.142 96.0653C224.903 96.733 224.558 97.2429 224.106 97.5952C223.655 97.9446 223.108 98.1193 222.466 98.1193ZM222.466 97.1818C223.102 97.1818 223.597 96.875 223.949 96.2614C224.301 95.6477 224.477 94.7727 224.477 93.6364C224.477 92.8807 224.396 92.2372 224.234 91.706C224.075 91.1747 223.845 90.7699 223.544 90.4915C223.246 90.2131 222.886 90.0739 222.466 90.0739C221.835 90.0739 221.342 90.3849 220.987 91.0071C220.632 91.6264 220.454 92.5028 220.454 93.6364C220.454 94.392 220.534 95.0341 220.693 95.5625C220.852 96.0909 221.081 96.4929 221.379 96.7685C221.68 97.044 222.043 97.1818 222.466 97.1818Z" fill="white"/>
<path d="M183.583 58.1193C183.02 58.1193 182.519 58.0227 182.078 57.8295C181.641 57.6364 181.293 57.3679 181.034 57.0241C180.779 56.6776 180.64 56.2756 180.617 55.8182H181.691C181.713 56.0994 181.81 56.3423 181.98 56.5469C182.151 56.7486 182.374 56.9048 182.65 57.0156C182.925 57.1264 183.23 57.1818 183.566 57.1818C183.941 57.1818 184.273 57.1165 184.563 56.9858C184.853 56.8551 185.08 56.6733 185.245 56.4403C185.409 56.2074 185.492 55.9375 185.492 55.6307C185.492 55.3097 185.412 55.027 185.253 54.7827C185.094 54.5355 184.861 54.3423 184.554 54.2031C184.248 54.0639 183.873 53.9943 183.429 53.9943H182.73V53.0568H183.429C183.776 53.0568 184.08 52.9943 184.341 52.8693C184.605 52.7443 184.811 52.5682 184.959 52.3409C185.11 52.1136 185.185 51.8466 185.185 51.5398C185.185 51.2443 185.12 50.9872 184.989 50.7685C184.858 50.5497 184.674 50.3793 184.435 50.2571C184.199 50.1349 183.921 50.0739 183.6 50.0739C183.299 50.0739 183.015 50.1293 182.748 50.2401C182.483 50.348 182.267 50.5057 182.1 50.7131C181.932 50.9176 181.841 51.1648 181.827 51.4545H180.804C180.821 50.9972 180.959 50.5966 181.218 50.2528C181.476 49.9062 181.814 49.6364 182.232 49.4432C182.652 49.25 183.114 49.1534 183.617 49.1534C184.157 49.1534 184.62 49.2628 185.006 49.4815C185.392 49.6974 185.689 49.983 185.897 50.3381C186.104 50.6932 186.208 51.0767 186.208 51.4886C186.208 51.9801 186.078 52.3991 185.82 52.7457C185.564 53.0923 185.216 53.3324 184.776 53.4659V53.5341C185.327 53.625 185.757 53.8594 186.067 54.2372C186.377 54.6122 186.532 55.0767 186.532 55.6307C186.532 56.1051 186.402 56.5312 186.144 56.9091C185.888 57.2841 185.539 57.5795 185.096 57.7955C184.652 58.0114 184.148 58.1193 183.583 58.1193ZM191.121 58.1193C190.479 58.1193 189.932 57.9446 189.48 57.5952C189.029 57.2429 188.684 56.733 188.445 56.0653C188.206 55.3949 188.087 54.5852 188.087 53.6364C188.087 52.6932 188.206 51.8878 188.445 51.2202C188.686 50.5497 189.033 50.0384 189.485 49.6861C189.939 49.331 190.485 49.1534 191.121 49.1534C191.757 49.1534 192.301 49.331 192.753 49.6861C193.208 50.0384 193.554 50.5497 193.793 51.2202C194.034 51.8878 194.155 52.6932 194.155 53.6364C194.155 54.5852 194.036 55.3949 193.797 56.0653C193.559 56.733 193.213 57.2429 192.762 57.5952C192.31 57.9446 191.763 58.1193 191.121 58.1193ZM191.121 57.1818C191.757 57.1818 192.252 56.875 192.604 56.2614C192.956 55.6477 193.132 54.7727 193.132 53.6364C193.132 52.8807 193.051 52.2372 192.89 51.706C192.73 51.1747 192.5 50.7699 192.199 50.4915C191.901 50.2131 191.542 50.0739 191.121 50.0739C190.49 50.0739 189.998 50.3849 189.642 51.0071C189.287 51.6264 189.11 52.5028 189.11 53.6364C189.11 54.392 189.189 55.0341 189.348 55.5625C189.507 56.0909 189.736 56.4929 190.034 56.7685C190.336 57.044 190.698 57.1818 191.121 57.1818Z" fill="white"/>
<path d="M126.483 40V39.233L129.363 36.0795C129.701 35.7102 129.98 35.3892 130.198 35.1165C130.417 34.8409 130.579 34.5824 130.684 34.3409C130.792 34.0966 130.846 33.8409 130.846 33.5739C130.846 33.267 130.772 33.0014 130.625 32.777C130.48 32.5526 130.281 32.3793 130.028 32.2571C129.775 32.1349 129.491 32.0739 129.176 32.0739C128.84 32.0739 128.548 32.1435 128.298 32.2827C128.051 32.419 127.859 32.6108 127.723 32.858C127.589 33.1051 127.522 33.3949 127.522 33.7273H126.517C126.517 33.2159 126.634 32.767 126.87 32.3807C127.106 31.9943 127.427 31.6932 127.833 31.4773C128.242 31.2614 128.701 31.1534 129.21 31.1534C129.721 31.1534 130.174 31.2614 130.569 31.4773C130.964 31.6932 131.274 31.9844 131.498 32.3509C131.723 32.7173 131.835 33.125 131.835 33.5739C131.835 33.8949 131.777 34.2088 131.66 34.5156C131.546 34.8196 131.348 35.1591 131.063 35.5341C130.782 35.9062 130.392 36.3608 129.892 36.8977L127.931 38.9943V39.0625H131.988V40H126.483ZM136.595 40.1193C135.953 40.1193 135.406 39.9446 134.954 39.5952C134.502 39.2429 134.157 38.733 133.919 38.0653C133.68 37.3949 133.561 36.5852 133.561 35.6364C133.561 34.6932 133.68 33.8878 133.919 33.2202C134.16 32.5497 134.507 32.0384 134.958 31.6861C135.413 31.331 135.958 31.1534 136.595 31.1534C137.231 31.1534 137.775 31.331 138.227 31.6861C138.681 32.0384 139.028 32.5497 139.267 33.2202C139.508 33.8878 139.629 34.6932 139.629 35.6364C139.629 36.5852 139.509 37.3949 139.271 38.0653C139.032 38.733 138.687 39.2429 138.235 39.5952C137.784 39.9446 137.237 40.1193 136.595 40.1193ZM136.595 39.1818C137.231 39.1818 137.725 38.875 138.078 38.2614C138.43 37.6477 138.606 36.7727 138.606 35.6364C138.606 34.8807 138.525 34.2372 138.363 33.706C138.204 33.1747 137.974 32.7699 137.673 32.4915C137.375 32.2131 137.015 32.0739 136.595 32.0739C135.964 32.0739 135.471 32.3849 135.116 33.0071C134.761 33.6264 134.583 34.5028 134.583 35.6364C134.583 36.392 134.663 37.0341 134.822 37.5625C134.981 38.0909 135.21 38.4929 135.508 38.7685C135.809 39.044 136.171 39.1818 136.595 39.1818Z" fill="white"/>
<path d="M75.6181 49.2727V58H74.5613V50.3807H74.5101L72.3794 51.7955V50.7216L74.5613 49.2727H75.6181ZM80.9746 58.1193C80.3326 58.1193 79.7857 57.9446 79.334 57.5952C78.8823 57.2429 78.5371 56.733 78.2985 56.0653C78.0598 55.3949 77.9405 54.5852 77.9405 53.6364C77.9405 52.6932 78.0598 51.8878 78.2985 51.2202C78.54 50.5497 78.8865 50.0384 79.3382 49.6861C79.7928 49.331 80.3382 49.1534 80.9746 49.1534C81.611 49.1534 82.155 49.331 82.6067 49.6861C83.0613 50.0384 83.4078 50.5497 83.6465 51.2202C83.888 51.8878 84.0087 52.6932 84.0087 53.6364C84.0087 54.5852 83.8894 55.3949 83.6507 56.0653C83.4121 56.733 83.0669 57.2429 82.6152 57.5952C82.1635 57.9446 81.6167 58.1193 80.9746 58.1193ZM80.9746 57.1818C81.611 57.1818 82.1053 56.875 82.4576 56.2614C82.8098 55.6477 82.986 54.7727 82.986 53.6364C82.986 52.8807 82.905 52.2372 82.7431 51.706C82.584 51.1747 82.3539 50.7699 82.0527 50.4915C81.7544 50.2131 81.3951 50.0739 80.9746 50.0739C80.3439 50.0739 79.851 50.3849 79.4959 51.0071C79.1408 51.6264 78.9632 52.5028 78.9632 53.6364C78.9632 54.392 79.0428 55.0341 79.2019 55.5625C79.361 56.0909 79.5897 56.4929 79.888 56.7685C80.1891 57.044 80.5513 57.1818 80.9746 57.1818Z" fill="white"/>
<defs>
<linearGradient id="paint0_linear_78_583" x1="66.749" y1="55.9316" x2="66.749" y2="55.9316" gradientUnits="userSpaceOnUse">
<stop stop-color="#AD60FF"/>
<stop offset="1" stop-color="#825FFE"/>
</linearGradient>
</defs>
</svg>
