<svg width="24" height="24" viewBox="0 0 24 24" fill="none" xmlns="http://www.w3.org/2000/svg">
<path fill-rule="evenodd" clip-rule="evenodd" d="M5.78113 7.17705C5.95213 4.26994 8.35953 2 11.2716 2H12.742C15.6465 2 18.0476 4.26398 18.2181 7.16345C18.2668 7.99045 17.6358 8.7003 16.8088 8.74895C15.9818 8.7976 15.2719 8.16665 15.2233 7.33965C15.146 6.02585 14.058 5 12.742 5H11.2716C9.94799 5 8.85368 6.0318 8.77598 7.3532L8.49743 12.0881C8.44878 12.9151 7.73893 13.5461 6.91193 13.4974C6.08493 13.4488 5.45398 12.7389 5.50263 11.9119L5.78113 7.17705Z" fill="#95E600"/>
<path d="M3.17975 11.8454C3.27755 10.9796 3.91374 10.3782 4.7797 10.2823C5.9967 10.1475 8.19735 10 12 10C15.9076 10 18.1013 10.1558 19.2769 10.2935C20.0671 10.386 20.66 10.9216 20.7717 11.7093C20.889 12.5371 21 13.8802 21 16C21 18.1198 20.889 19.4629 20.7717 20.2907C20.66 21.0785 20.0671 21.614 19.2769 21.7066C18.1013 21.8442 15.9076 22 12 22C8.0924 22 5.8987 21.8442 4.7231 21.7066C3.93285 21.614 3.34001 21.0785 3.22832 20.2907C3.11095 19.4629 3 18.1198 3 16C3 13.9927 3.08528 12.6817 3.17975 11.8454Z" fill="#E7E049"/>
<path d="M9.5 16C9.5 15.4949 9.882 15.0736 10.3863 15.0454C10.8153 15.0214 11.3733 15 12 15C12.6267 15 13.1847 15.0214 13.6137 15.0454C14.118 15.0736 14.5 15.4949 14.5 16C14.5 16.5051 14.118 16.9264 13.6137 16.9546C13.1847 16.9786 12.6267 17 12 17C11.3733 17 10.8153 16.9786 10.3863 16.9546C9.882 16.9264 9.5 16.5051 9.5 16Z" fill="#95E600"/>
</svg>
